<svg width="715" height="475" viewBox="0 0 715 475" fill="none" xmlns="http://www.w3.org/2000/svg">
<path d="M44.7825 197.168H9.32935V1.12027H44.7825C74.4823 1.12027 87.6995 9.05552 87.6995 26.9799V73.1911C87.6995 85.4207 78.2142 91.1154 61.8871 93.2626V96.0633C78.2142 98.0238 87.6995 103.718 87.6995 116.322V171.215C87.6995 189.139 74.4823 197.168 44.7825 197.168ZM39.1847 17.6443V86.2609H46.0265C54.1123 86.2609 57.8442 84.0204 57.8442 77.6722V25.5795C57.8442 19.8848 54.1123 17.6443 46.0265 17.6443H39.1847ZM39.1847 103.065V180.644H46.0265C54.1123 180.644 57.8442 178.403 57.8442 172.615V111.56C57.8442 105.306 54.1123 103.065 46.0265 103.065H39.1847Z" fill="white"/>
<path d="M135.762 197.168H105.907V1.12027H135.762V85.9809H154.422V1.12027H184.277V197.168H154.422V102.505H135.762V197.168Z" fill="white"/>
<path d="M225.177 197.168H195.01L215.38 1.12027H258.608L278.978 197.168H248.967L245.236 139.847H228.753L225.177 197.168ZM231.707 94.663L229.53 123.79H244.458L242.437 94.663C241.348 75.6183 240.571 59.0943 239.482 39.3029H234.662C233.573 59.0943 232.796 75.2449 231.707 94.663Z" fill="white"/>
<path d="M288.874 179.057V25.2061C288.874 7.93527 302.091 0 328.059 0C353.872 0 367.244 7.93527 367.244 25.2061V73.0977L337.389 75.1516V23.6191C337.389 18.7646 333.657 16.524 328.059 16.524C322.461 16.524 318.729 18.7646 318.729 23.6191V174.762C318.729 179.617 322.15 181.764 327.593 181.764C333.191 181.764 337.389 179.243 337.389 174.016V102.505H327.748V85.9809H367.244V197.168H344.542L338.478 184.658H333.813C331.947 193.807 324.483 198.288 312.199 198.288C298.67 198.288 288.874 192.407 288.874 179.057Z" fill="white"/>
<path d="M407.399 197.168H377.233L397.603 1.12027H440.831L461.201 197.168H431.19L427.458 139.847H410.975L407.399 197.168ZM413.93 94.663L411.753 123.79H426.68L424.659 94.663C423.57 75.6183 422.793 59.0943 421.705 39.3029H416.884C415.796 59.0943 415.018 75.2449 413.93 94.663Z" fill="white"/>
<path d="M513.645 1.12027H543.656L523.286 197.168H480.214L459.688 1.12027H490.01L496.696 99.8909C497.785 119.496 498.562 137.327 499.495 157.492H504.316C505.093 137.327 505.871 119.496 506.959 99.8909L513.645 1.12027Z" fill="white"/>
<path d="M572.31 197.168H542.144L562.514 1.12027H605.742L626.112 197.168H596.101L592.369 139.847H575.886L572.31 197.168ZM578.841 94.663L576.664 123.79H591.592L589.57 94.663C588.482 75.6183 587.704 59.0943 586.616 39.3029H581.795C580.707 59.0943 579.929 75.2449 578.841 94.663Z" fill="white"/>
<path d="M672.083 197.168H636.63V1.12027H672.083C700.383 1.12027 715 9.89573 715 27.7267V170.561C715 188.766 701.005 197.168 672.083 197.168ZM666.485 17.6443V180.644H673.016C680.791 180.644 685.145 177.936 685.145 172.242V26.0463C685.145 20.2582 680.791 17.6443 673.016 17.6443H666.485Z" fill="white"/>
<path d="M0 366.891V222.023C0 205.76 32.0075 198.288 94.8927 198.288C157.401 198.288 189.785 205.76 189.785 222.023V267.118L117.486 269.052V220.528C117.486 215.957 108.449 213.847 94.8927 213.847C81.3366 213.847 72.2992 215.957 72.2992 220.528V362.848C72.2992 367.419 80.5835 369.441 93.763 369.441C107.319 369.441 117.486 367.067 117.486 362.144V294.809H94.1396V279.249H189.785V383.945H134.808L120.122 372.166H108.825C104.307 380.781 86.2319 385 56.4838 385C23.7232 385 0 379.462 0 366.891Z" fill="white"/>
<path d="M305.477 383.945H233.178V199.343H305.477V383.945Z" fill="white"/>
<path d="M455.93 383.945H383.631V214.902H332.042V199.343H507.142V214.902H455.93V383.945Z" fill="white"/>
<path d="M569.444 383.945H496.392L545.721 199.343H650.405L699.734 383.945H627.058L618.021 329.971H578.105L569.444 383.945ZM585.26 287.425L579.988 314.851H616.138L611.242 287.425C608.607 269.492 606.724 253.932 604.088 235.296H592.415C589.779 253.932 587.896 269.14 585.26 287.425Z" fill="white"/>
<path d="M50.7102 473.437L0 391.443H28.4023L66.5787 453.479L104.64 391.443H132.583L81.8723 473.437H50.7102Z" fill="white"/>
<path d="M244.236 473.437H139.596V391.443H244.236V410.559H162.939V424.144H242.051V439.894H162.939V454.321H244.236V473.437Z" fill="white"/>
<path d="M278.826 473.437H255.484V391.443H334.021C353.339 391.443 366.793 398.536 366.793 420.057C366.793 438.091 356.559 446.747 339.196 448.19L334.136 448.31L340.346 452.277L366.103 473.437H336.781L308.609 449.632H278.826V473.437ZM278.826 412.362V431.358H331.721C339.426 431.358 342.645 428.713 342.645 421.98C342.645 414.646 339.426 412.362 331.721 412.362H278.826Z" fill="white"/>
<path d="M482.776 450.113C482.776 467.426 471.507 475 432.755 475C413.207 475 390.554 472.115 376.411 468.508L379.745 448.911C395.844 452.638 415.392 455.884 438.965 455.884C457.363 455.884 460.698 454.321 460.698 449.392C460.698 444.342 457.823 443.741 451.729 443.14L408.378 440.495C384 439.293 375.146 431.117 375.146 415.849C375.146 397.454 390.554 390 426.891 390C440.805 390 463.458 392.284 478.981 395.771L475.186 414.165C461.848 411.4 441.15 409.116 421.487 409.116C400.329 409.116 397.224 410.318 397.224 415.248C397.224 419.816 400.214 420.537 407.343 421.018L450.119 423.663C472.657 424.986 482.776 433.161 482.776 450.113Z" fill="white"/>
<path d="M597.963 473.437H493.322V391.443H597.963V410.559H516.665V424.144H595.778V439.894H516.665V454.321H597.963V473.437Z" fill="white"/>
<path d="M715 450.113C715 467.426 703.731 475 664.98 475C645.432 475 622.779 472.115 608.635 468.508L611.97 448.911C628.068 452.638 647.616 455.884 671.189 455.884C689.587 455.884 692.922 454.321 692.922 449.392C692.922 444.342 690.047 443.741 683.953 443.14L640.602 440.495C616.224 439.293 607.37 431.117 607.37 415.849C607.37 397.454 622.779 390 659.115 390C673.029 390 695.682 392.284 711.205 395.771L707.411 414.165C694.072 411.4 673.374 409.116 653.711 409.116C632.553 409.116 629.448 410.318 629.448 415.248C629.448 419.816 632.438 420.537 639.567 421.018L682.343 423.663C704.881 424.986 715 433.161 715 450.113Z" fill="white"/>
</svg>
